<svg width="110" height="117" viewBox="0 0 110 117" fill="none" xmlns="http://www.w3.org/2000/svg">
    <path d="M37.0073 103.916L37.3331 105.545H34.2376C30.925 105.545 23.6479 106.359 18.9776 107.283C16.3165 107.771 15.9364 108.043 14.3072 110.595C12.1893 113.962 10.8859 117.384 7.95335 127.539C4.64066 138.835 3.12008 146.981 3.12008 153.389C3.12008 154.692 2.73994 157.733 2.30549 160.123C1.5452 164.141 1.21936 165.771 0.133231 170.495C-0.192607 172.016 -0.0296881 172.287 1.87104 173.482C3.77176 174.677 4.36913 174.786 10.4514 174.623C14.9589 174.514 17.2941 174.242 18.1087 173.699C19.2491 172.939 19.3577 172.993 19.6835 174.514C20.0637 176.252 21.9644 178.098 24.8426 179.51C39.2338 186.407 46.9996 188.579 54.9827 187.873C60.359 187.33 63.6717 186.298 67.9619 183.692C69.9713 182.497 72.7952 181.085 74.2072 180.651C75.5648 180.162 77.194 179.456 77.7914 179.021C78.3888 178.641 79.6378 178.315 80.6153 178.315C82.8962 178.315 86.5347 176.632 88.7613 174.514C91.3137 172.124 95.1694 165.445 94.5178 164.576C94.1919 164.25 93.6488 162.349 93.323 160.394C92.6713 157.027 91.911 154.04 90.2819 148.175C89.8474 146.655 88.7613 142.419 87.8381 138.672C86.9149 134.925 85.5572 130.146 84.8512 128.028C84.0909 125.91 83.222 122.814 82.8962 121.239C82.5704 119.61 81.7014 116.298 80.9955 113.908C78.2258 104.622 75.4019 102.992 63.1287 103.59C59.2729 103.753 55.2542 104.079 54.331 104.241C52.7561 104.513 52.5389 104.459 52.5389 103.427C52.5389 102.303 51.5056 101.98 50.8465 102.423C50.55 102.622 50.3292 102.976 50.3123 103.481C50.2037 105.273 50.421 106.305 50.9097 106.631C51.1269 106.794 51.5071 107.5 51.7243 108.152C51.9415 108.858 53.082 110.432 54.2767 111.627C55.4715 112.822 56.286 113.908 56.0688 114.125C55.6887 114.505 50.421 115.157 44.1214 115.592C41.2432 115.809 38.8537 115.646 37.1159 115.157C34.1833 114.397 33.3687 113.419 35.1066 112.876C38.4435 111.839 40.4325 104.638 38.897 102.423C42.4097 102.146 49.7947 102.534 50.8465 102.423C50.9848 102.408 51.0136 102.395 50.9097 102.383C49.7426 102.252 37.8508 102.286 37.496 102.286C36.8444 102.286 36.7357 102.667 37.0073 103.916ZM74.4244 106.631C76.9768 108.314 78.7146 111.844 80.2895 118.307C80.9412 120.968 82.3531 126.236 83.4936 129.983C84.634 133.73 85.883 138.129 86.2632 139.758C86.589 141.387 87.6208 145.297 88.4897 148.338C89.3587 151.434 90.662 156.593 91.368 159.743L92.617 165.553L90.662 168.975C89.1414 171.581 87.8924 172.939 85.4486 174.568C81.3213 177.338 79.9636 177.338 79.4749 174.623C78.5517 169.572 77.9543 165.119 77.5199 159.851C76.8682 152.466 75.9993 145.786 75.5648 144.211C75.239 143.071 75.3476 143.016 76.7596 143.342C77.6285 143.559 78.4974 143.939 78.6603 144.211C79.149 144.971 79.7464 143.179 79.3663 142.202C78.9861 141.278 78.0629 141.116 78.0629 141.93C78.0629 142.202 77.4655 142.473 76.7053 142.473C75.6734 142.473 75.2933 142.093 75.0218 140.953C74.8588 140.138 74.4787 138.617 74.2072 137.586C72.3064 129.874 71.6004 122.76 72.6323 122.108C73.3383 121.674 73.3383 120.208 72.578 120.208C72.2521 120.208 71.3832 120.696 70.6229 121.294C69.8626 121.891 68.7765 122.38 68.2335 122.38C67.6361 122.38 67.2016 122.76 67.2016 123.194C67.2016 123.737 67.7447 124.009 68.8308 124.009C70.3514 124.009 70.46 124.172 70.46 126.018C70.46 128.082 71.166 131.938 73.1753 141.387C74.3701 146.926 75.0761 151.977 75.8907 160.937C76.1622 164.087 76.5423 167.78 76.7596 169.192C77.0854 171.419 76.9768 171.799 76.2165 171.799C75.7277 171.799 74.3701 172.287 73.284 172.83C72.0349 173.428 70.6772 173.754 69.754 173.591C68.6679 173.374 68.2878 173.536 68.2878 174.188C68.2878 174.677 68.4507 175.003 68.7222 174.948C68.9394 174.948 69.5368 175.057 70.0256 175.274C70.6229 175.546 71.8177 175.166 73.3383 174.297C76.3251 172.505 77.3026 172.505 77.7371 174.297C78.2258 176.089 78.0086 176.252 74.2615 177.827C72.6323 178.478 70.7859 179.456 70.1885 179.945C67.9076 181.845 63.3459 184.289 60.359 185.158C55.5801 186.516 46.0221 186.027 40.32 184.072C33.8575 181.845 23.7022 177.066 22.4532 175.654C20.2266 173.156 19.7378 154.475 21.5843 140.301C22.1816 135.685 22.6704 130.363 22.6704 128.516C22.6704 126.67 22.9419 124.987 23.2135 124.824C23.5393 124.606 24.6254 124.987 25.6572 125.638C26.7434 126.29 27.9381 126.67 28.4269 126.507C29.4587 126.127 28.9156 125.095 27.6123 125.095C27.1235 125.095 26.0917 124.552 25.3857 123.9C24.6797 123.194 23.8108 122.651 23.485 122.651C23.2135 122.651 22.3445 122.434 21.6386 122.163C20.0094 121.565 18.6517 122.706 20.118 123.52C21.3127 124.226 21.3127 125.91 20.1723 135.793C19.4663 141.604 19.0862 143.559 18.4888 143.559C18.1087 143.559 17.5113 142.908 17.1854 142.147C16.5881 140.464 16.3165 140.627 15.6106 142.962C15.2304 144.374 15.2847 144.645 15.7735 144.157C16.1536 143.885 17.0225 143.777 17.7285 143.939L18.9776 144.265L18.6517 157.896C18.4888 165.39 18.3802 171.581 18.3259 171.581C18.163 172.179 14.4701 172.83 11.266 172.939C5.07511 173.048 4.42344 172.939 3.17439 171.907L2.03396 170.984L3.33731 164.739C4.04329 161.318 4.91219 155.29 5.29234 151.434C6.05263 142.31 6.59569 139.106 8.65934 132.155C13.7641 114.56 15.339 110.867 18.2173 109.835C19.0319 109.564 20.1723 109.075 20.7697 108.803C21.367 108.532 23.8108 108.152 26.2003 107.989L30.5448 107.608L30.3819 110.324C30.1104 113.854 31.5766 115.592 35.7039 116.678C41.2975 118.144 55.5258 117.058 58.3497 114.94C60.1961 113.636 60.6306 110.269 59.3815 107.771C58.8928 106.902 58.5126 106.034 58.5126 105.871C58.5126 105.273 60.7392 105.11 66.387 105.165C71.7634 105.273 72.578 105.382 74.4244 106.631ZM57.3179 108.206C58.7298 110.65 58.8385 111.519 57.698 111.519C56.6119 111.519 54.7655 109.944 53.8423 108.152C52.8104 106.197 52.8647 106.088 54.6026 106.088C55.7973 106.088 56.3947 106.522 57.3179 108.206ZM37.3331 107.717C37.3331 109.129 35.9211 110.975 34.4549 111.519C32.3369 112.225 32.4455 112.279 32.4455 110.65C32.4455 108.26 33.3687 107.174 35.4324 107.174C36.4642 107.174 37.3331 107.391 37.3331 107.717Z" fill="black"/>
    <path d="M74.4244 106.631C76.9768 108.314 78.7146 111.844 80.2895 118.307C80.9412 120.968 82.3531 126.236 83.4936 129.983C84.634 133.73 85.883 138.129 86.2632 139.758C86.589 141.387 87.6208 145.297 88.4897 148.338C89.3587 151.434 90.662 156.593 91.368 159.743L92.617 165.553L90.662 168.975C89.1414 171.581 87.8924 172.939 85.4486 174.568C81.3213 177.338 79.9636 177.338 79.4749 174.623C78.5517 169.572 77.9543 165.119 77.5199 159.851C76.8682 152.466 75.9993 145.786 75.5648 144.211C75.239 143.071 75.3476 143.016 76.7596 143.342C77.6285 143.559 78.4974 143.939 78.6603 144.211C79.149 144.971 79.7464 143.179 79.3663 142.202C78.9861 141.278 78.0629 141.116 78.0629 141.93C78.0629 142.202 77.4655 142.473 76.7053 142.473C75.6734 142.473 75.2933 142.093 75.0218 140.953C74.8588 140.138 74.4787 138.617 74.2072 137.586C72.3064 129.874 71.6004 122.76 72.6323 122.108C73.3383 121.674 73.3383 120.208 72.578 120.208C72.2521 120.208 71.3832 120.696 70.6229 121.294C69.8626 121.891 68.7765 122.38 68.2335 122.38C67.6361 122.38 67.2016 122.76 67.2016 123.194C67.2016 123.737 67.7447 124.009 68.8308 124.009C70.3514 124.009 70.46 124.172 70.46 126.018C70.46 128.082 71.166 131.938 73.1753 141.387C74.3701 146.926 75.0761 151.977 75.8907 160.937C76.1622 164.087 76.5423 167.78 76.7596 169.192C77.0854 171.419 76.9768 171.799 76.2165 171.799C75.7277 171.799 74.3701 172.287 73.284 172.83C72.0349 173.428 70.6772 173.754 69.754 173.591C68.6679 173.374 68.2878 173.536 68.2878 174.188C68.2878 174.677 68.4507 175.003 68.7222 174.948C68.9394 174.948 69.5368 175.057 70.0256 175.274C70.6229 175.546 71.8177 175.166 73.3383 174.297C76.3251 172.505 77.3026 172.505 77.7371 174.297C78.2258 176.089 78.0086 176.252 74.2615 177.827C72.6323 178.478 70.7859 179.456 70.1885 179.945C67.9076 181.845 63.3459 184.289 60.359 185.158C55.5801 186.516 46.0221 186.027 40.32 184.072C33.8575 181.845 23.7022 177.066 22.4532 175.654C20.2266 173.156 19.7378 154.475 21.5843 140.301C22.1816 135.685 22.6704 130.363 22.6704 128.516C22.6704 126.67 22.9419 124.987 23.2135 124.824C23.5393 124.606 24.6254 124.987 25.6572 125.638C26.7434 126.29 27.9381 126.67 28.4269 126.507C29.4587 126.127 28.9156 125.095 27.6123 125.095C27.1235 125.095 26.0917 124.552 25.3857 123.9C24.6797 123.194 23.8108 122.651 23.485 122.651C23.2135 122.651 22.3445 122.434 21.6386 122.163C20.0094 121.565 18.6517 122.706 20.118 123.52C21.3127 124.226 21.3127 125.91 20.1723 135.793C19.4663 141.604 19.0862 143.559 18.4888 143.559C18.1087 143.559 17.5113 142.908 17.1854 142.147C16.5881 140.464 16.3165 140.627 15.6106 142.962C15.2304 144.374 15.2847 144.645 15.7735 144.157C16.1536 143.885 17.0225 143.777 17.7285 143.939L18.9776 144.265L18.6517 157.896C18.4888 165.39 18.3802 171.581 18.3259 171.581C18.163 172.179 14.4701 172.83 11.266 172.939C5.07511 173.048 4.42344 172.939 3.17439 171.907L2.03396 170.984L3.33731 164.739C4.04329 161.318 4.91219 155.29 5.29234 151.434C6.05263 142.31 6.59569 139.106 8.65934 132.155C13.7641 114.56 15.339 110.867 18.2173 109.835C19.0319 109.564 20.1723 109.075 20.7697 108.803C21.367 108.532 23.8108 108.152 26.2003 107.989L30.5448 107.608L30.3819 110.324C30.1104 113.854 31.5766 115.592 35.7039 116.678C41.2975 118.144 55.5258 117.058 58.3497 114.94C60.1961 113.636 60.6306 110.269 59.3815 107.771C58.8928 106.902 58.5126 106.034 58.5126 105.871C58.5126 105.273 60.7392 105.11 66.387 105.165C71.7634 105.273 72.578 105.382 74.4244 106.631Z" fill="#20A3E4"/>
    <path d="M37.3331 107.717C37.3331 109.129 35.9211 110.975 34.4549 111.519C32.3369 112.225 32.4455 112.279 32.4455 110.65C32.4455 108.26 33.3687 107.174 35.4324 107.174C36.4642 107.174 37.3331 107.391 37.3331 107.717Z" fill="#1C8EAE"/>
    <path d="M57.3179 108.206C58.7298 110.65 58.8385 111.519 57.698 111.519C56.6119 111.519 54.7655 109.944 53.8423 108.152C52.8104 106.197 52.8647 106.088 54.6026 106.088C55.7973 106.088 56.3947 106.522 57.3179 108.206Z" fill="#1C8EAE"/>
    <path d="M50.8465 102.423C50.55 102.622 50.3292 102.976 50.3123 103.481C50.2037 105.273 50.421 106.305 50.9097 106.631C51.1269 106.794 51.5071 107.5 51.7243 108.152C51.9415 108.858 53.082 110.432 54.2767 111.627C55.4715 112.822 56.286 113.908 56.0688 114.125C55.6887 114.505 50.421 115.157 44.1214 115.592C41.2432 115.809 38.8537 115.646 37.1159 115.157C34.1833 114.397 33.3687 113.419 35.1066 112.876C38.4435 111.839 40.4325 104.638 38.897 102.423C42.4097 102.146 49.7947 102.534 50.8465 102.423Z" fill="white"/>
    <path d="M56.4941 0.313148C45.0354 1.94234 36.8895 4.49474 29.0693 8.94786C22.7155 12.5321 21.1949 13.8897 16.7418 19.6462C10.9853 27.1948 9.79056 29.0412 8.26998 32.3539C7.56399 33.9831 6.20633 36.9157 5.28312 38.8707C3.3824 42.7808 3.43671 41.8575 3.87116 59.833C4.08838 69.1737 3.97977 70.2598 3.11087 71.1287C0.612774 73.6268 -0.527661 78.9488 0.232629 84.1622C0.66708 86.9862 3.27379 90.4618 4.90298 90.4618C5.50035 90.4618 6.7494 90.9505 7.72691 91.4936C8.70443 92.0367 10.8767 92.7969 12.5059 93.1771C18.4796 94.4261 20.6518 96.1096 20.6518 99.4766C20.6518 100.78 21.6837 102.029 23.5301 103.061C25.2679 103.984 38.7359 104.201 40.9081 103.332C41.9399 102.898 43.189 102.789 44.0036 103.007C46.2302 103.658 50.2488 103.55 50.9548 102.844C51.4436 102.355 51.6065 102.355 51.6065 102.844C51.6065 103.658 57.906 103.767 59.9154 103.007C60.6757 102.681 61.8161 101.486 62.5221 100.291C63.4996 98.4991 64.0427 98.0647 65.346 98.0647C66.2149 98.0647 69.7448 96.6527 73.2204 94.9149C76.7504 93.1771 80.769 91.4393 82.2353 91.0591C87.7746 89.7015 90.6528 87.2577 94.7801 80.5237C96.192 78.1342 99.016 74.1155 101.08 71.5631C108.357 62.494 108.683 61.788 109.008 56.6832C109.389 51.0896 108.302 34.2546 107.271 30.236C106.619 27.3577 104.447 22.7417 102.98 20.9496C102.6 20.5151 101.623 18.9945 100.862 17.5826C99.4504 15.1388 93.3681 9.70815 89.8925 7.75312C89.0236 7.26437 84.3533 5.36364 79.5743 3.51723C71.3197 0.367455 70.6137 0.204529 65.4546 0.0416107C62.4678 -0.0670013 58.4491 0.0416107 56.4941 0.313148ZM74.9583 4.1689C78.108 5.36364 82.2896 6.93853 84.299 7.5902C88.9693 9.11079 96.5722 14.5414 98.6358 17.7998C99.4504 19.1032 100.591 20.7867 101.134 21.6556C102.926 24.2623 105.37 28.9326 105.37 29.7472C105.37 30.5618 101.134 31.8109 98.31 31.8109C96.4636 31.8109 96.0291 31.2135 95.8662 28.7697C95.7576 26.8147 94.7801 25.2941 93.6397 25.2941C92.7708 25.2941 92.6078 26.7061 93.4224 27.1948C94.0741 27.575 94.1284 30.0187 93.531 30.3989C92.7164 30.8876 90.7071 30.0731 90.7071 29.3128C90.7071 28.8783 90.9786 28.5525 91.3045 28.5525C92.1734 28.5525 91.4131 25.7828 90.1097 24.4795C89.2951 23.6106 88.3176 23.4477 84.7334 23.3934C79.3028 23.3934 78.9769 24.3709 84.2446 24.8596C86.6884 25.0769 88.4262 25.5113 88.9693 26.0544C89.7839 26.869 89.7839 27.0862 88.8607 28.7697C87.4487 31.485 87.6659 31.6479 93.8026 32.6798C95.3775 33.0056 95.5404 33.2228 95.9748 35.8295C96.5179 39.3051 97.4411 39.4138 97.6583 36.1011L97.8212 33.5487L100.645 33.2771C102.22 33.1142 103.958 32.8427 104.555 32.6255C105.587 32.2996 105.696 32.6798 106.347 36.5355C106.673 38.8707 106.999 45.1702 106.999 50.5466V55.3963C106.999 58.6056 106.034 61.7408 104.229 64.3947C102.709 66.567 101.188 68.6849 100.808 69.0107C99.8306 69.8253 94.5086 77.211 94.5086 77.7541C94.4542 78.6773 90.4356 83.7278 88.2633 85.6828C84.9506 88.6154 81.9095 89.3756 73.6549 89.3756C67.7355 89.3756 66.3235 89.5386 65.346 90.3532C63.8254 91.5479 61.9247 94.8063 61.9247 96.1639C61.9247 96.7613 61.3816 98.2819 60.73 99.5309L60.0461 100.809C59.6982 101.46 59.0203 101.866 58.2826 101.866H55.951H54.505C53.3682 101.866 52.46 100.92 52.5067 99.784L52.584 97.9017C52.7469 94.752 52.6383 93.7745 51.9323 93.2314C50.9005 92.3625 50.9005 92.4711 51.0634 96.4355C51.172 100.78 50.0316 102.138 46.556 101.649L45.6815 101.516C44.7378 101.372 44.0271 100.582 43.9844 99.628L43.895 97.6302C43.7864 94.8063 43.5691 93.9917 42.9175 93.9917C42.3201 93.9917 42.0486 94.8063 41.9399 97.2501C41.777 101.16 41.071 101.866 37.3239 101.866C34.1741 101.866 33.1423 100.997 33.1423 98.3905C33.1423 96.3269 32.2191 95.295 31.4588 96.4898C31.1873 96.9242 30.9701 98.2819 30.9701 99.5309V101.866H28.5263C25.3222 101.866 22.8241 100.617 22.8241 98.9879C22.8241 96.001 17.8822 91.5479 14.5695 91.5479C12.886 91.5479 9.3561 90.2445 5.33743 88.2352C3.61591 86.7663 2.55278 84.6703 2.38453 82.4135L2.29627 81.2297C2.45919 76.1792 2.62211 75.7447 4.30561 73.3553L5.70312 71.4072C5.95905 71.0505 6.09048 70.6194 6.07711 70.1805L5.77188 60.1588C5.60896 54.2937 5.33743 48.2114 5.17451 46.7451C5.17451 44.3955 5.28312 43.7845 6.69509 40.4999C8.4872 37.0243 8.54151 36.97 11.0939 36.6984C14.0808 36.3726 14.4609 35.3951 11.6913 35.1779C9.41041 34.9606 9.24749 34.0917 11.0939 30.942C12.2887 28.824 13.4834 27.1405 19.1856 19.7005C23.9645 13.4553 26.7342 11.6632 29.721 13.0751C31.7847 14.0527 31.8933 14.5957 30.427 16.062C29.3409 17.1481 28.9607 18.7773 29.8296 18.7773C30.0468 18.7773 30.9158 18.2886 31.6217 17.6912C32.7622 16.8223 33.3052 16.7137 35.043 17.2024C36.4007 17.5826 37.2696 17.5826 37.5954 17.2567C38.3557 16.4965 37.6497 15.5189 36.4007 15.5189C34.7172 15.5189 33.6854 14.9216 33.6854 13.944C33.6854 13.401 32.8165 12.5864 31.7303 12.0433C30.5356 11.5003 29.9382 10.9029 30.2098 10.6314C32.1105 8.78494 43.5691 4.38612 48.7826 3.51723C50.7919 3.13708 53.3986 2.70263 54.5933 2.4854C55.7881 2.26817 59.5895 2.05095 63.0108 1.99664C69.0932 1.94234 69.419 1.99664 74.9583 4.1689ZM75.7185 90.8962C75.8815 91.1134 75.0669 91.7651 73.9807 92.3082C72.8946 92.8513 70.831 93.8831 69.4733 94.5891C67.1924 95.7838 64.097 96.3269 64.097 95.6209C64.097 95.0235 65.9977 92.3625 66.8123 91.8194C67.2467 91.4936 69.0932 91.1134 70.8853 90.9505C72.6774 90.7876 74.4152 90.6247 74.7953 90.5704C75.1212 90.5161 75.5556 90.679 75.7185 90.8962Z" fill="black"/>
    <path d="M74.9583 4.1689C78.108 5.36364 82.2896 6.93853 84.299 7.5902C88.9693 9.11079 96.5722 14.5414 98.6358 17.7998C99.4504 19.1032 100.591 20.7867 101.134 21.6556C102.926 24.2623 105.37 28.9326 105.37 29.7472C105.37 30.5618 101.134 31.8109 98.31 31.8109C96.4636 31.8109 96.0291 31.2135 95.8662 28.7697C95.7576 26.8147 94.7801 25.2941 93.6397 25.2941C92.7708 25.2941 92.6078 26.7061 93.4224 27.1948C94.0741 27.575 94.1284 30.0187 93.531 30.3989C92.7164 30.8876 90.7071 30.0731 90.7071 29.3128C90.7071 28.8783 90.9786 28.5525 91.3045 28.5525C92.1734 28.5525 91.4131 25.7828 90.1097 24.4795C89.2951 23.6106 88.3176 23.4477 84.7334 23.3934C79.3028 23.3934 78.9769 24.3709 84.2446 24.8596C86.6884 25.0769 88.4262 25.5113 88.9693 26.0544C89.7839 26.869 89.7839 27.0862 88.8607 28.7697C87.4487 31.485 87.6659 31.6479 93.8026 32.6798C95.3775 33.0056 95.5404 33.2228 95.9748 35.8295C96.5179 39.3051 97.4411 39.4138 97.6583 36.1011L97.8212 33.5487L100.645 33.2771C102.22 33.1142 103.958 32.8427 104.555 32.6255C105.587 32.2996 105.696 32.6798 106.347 36.5355C106.673 38.8707 106.999 45.1702 106.999 50.5466V55.3963C106.999 58.6056 106.034 61.7408 104.229 64.3947C102.709 66.567 101.188 68.6849 100.808 69.0107C99.8306 69.8253 94.5086 77.211 94.5086 77.7541C94.4542 78.6773 90.4356 83.7278 88.2633 85.6828C84.9506 88.6154 81.9095 89.3756 73.6549 89.3756C67.7355 89.3756 66.3235 89.5386 65.346 90.3532C63.8254 91.5479 61.9247 94.8063 61.9247 96.1639C61.9247 96.7613 61.3816 98.2819 60.73 99.5309L60.0461 100.809C59.6982 101.46 59.0203 101.866 58.2826 101.866H55.951H54.505C53.3682 101.866 52.46 100.92 52.5067 99.784L52.584 97.9017C52.7469 94.752 52.6383 93.7745 51.9323 93.2314C50.9005 92.3625 50.9005 92.4711 51.0634 96.4355C51.172 100.78 50.0316 102.138 46.556 101.649L45.6815 101.516C44.7378 101.372 44.0271 100.582 43.9844 99.628L43.895 97.6302C43.7864 94.8063 43.5691 93.9917 42.9175 93.9917C42.3201 93.9917 42.0486 94.8063 41.9399 97.2501C41.777 101.16 41.071 101.866 37.3239 101.866C34.1741 101.866 33.1423 100.997 33.1423 98.3905C33.1423 96.3269 32.2191 95.295 31.4588 96.4898C31.1873 96.9242 30.9701 98.2819 30.9701 99.5309V101.866H28.5263C25.3222 101.866 22.8241 100.617 22.8241 98.9879C22.8241 96.001 17.8822 91.5479 14.5695 91.5479C12.886 91.5479 9.3561 90.2445 5.33743 88.2352C3.61591 86.7663 2.55278 84.6703 2.38453 82.4135L2.29627 81.2297C2.45919 76.1792 2.62211 75.7447 4.30561 73.3553L5.70312 71.4072C5.95905 71.0505 6.09048 70.6194 6.07711 70.1805L5.77188 60.1588C5.60896 54.2937 5.33743 48.2114 5.17451 46.7451C5.17451 44.3955 5.28312 43.7845 6.69509 40.4999C8.4872 37.0243 8.54151 36.97 11.0939 36.6984C14.0808 36.3726 14.4609 35.3951 11.6913 35.1779C9.41041 34.9606 9.24749 34.0917 11.0939 30.942C12.2887 28.824 13.4834 27.1405 19.1856 19.7005C23.9645 13.4553 26.7342 11.6632 29.721 13.0751C31.7847 14.0527 31.8933 14.5957 30.427 16.062C29.3409 17.1481 28.9607 18.7773 29.8296 18.7773C30.0468 18.7773 30.9158 18.2886 31.6217 17.6912C32.7622 16.8223 33.3052 16.7137 35.043 17.2024C36.4007 17.5826 37.2696 17.5826 37.5954 17.2567C38.3557 16.4965 37.6497 15.5189 36.4007 15.5189C34.7172 15.5189 33.6854 14.9216 33.6854 13.944C33.6854 13.401 32.8165 12.5864 31.7303 12.0433C30.5356 11.5003 29.9382 10.9029 30.2098 10.6314C32.1105 8.78494 43.5691 4.38612 48.7826 3.51723C50.7919 3.13708 53.3986 2.70263 54.5933 2.4854C55.7881 2.26817 59.5895 2.05095 63.0108 1.99664C69.0932 1.94234 69.419 1.99664 74.9583 4.1689Z" fill="white"/>
    <path d="M75.7185 90.8962C75.8815 91.1134 75.0669 91.7651 73.9807 92.3082C72.8946 92.8513 70.831 93.8831 69.4733 94.5891C67.1924 95.7838 64.097 96.3269 64.097 95.6209C64.097 95.0235 65.9977 92.3625 66.8123 91.8194C67.2467 91.4936 69.0932 91.1134 70.8853 90.9505C72.6774 90.7876 74.4152 90.6247 74.7953 90.5704C75.1212 90.5161 75.5556 90.679 75.7185 90.8962Z" fill="#D8D8D8"/>
    <path d="M71.9713 35.558C71.5369 36.3726 72.2971 36.6441 76.1529 37.0243C78.7053 37.2958 79.7914 37.1872 80.1173 36.6984C80.3345 36.3183 80.2259 35.8295 79.7914 35.558C78.7596 34.9063 72.4058 34.9606 71.9713 35.558Z" fill="black"/>
    <path d="M34.6628 82.6959C33.9568 83.5649 32.7621 85.0311 32.1104 86.0086C31.0243 87.5835 30.9699 87.8007 31.7845 88.0723C32.2733 88.2895 32.925 88.1809 33.3051 87.8007C33.631 87.4749 34.8257 87.2034 35.9661 87.2034C37.7039 87.2034 38.1384 87.4749 38.8444 88.8326C39.659 90.4075 40.908 90.9505 41.5054 90.0273C41.8312 89.4842 38.1927 82.2072 37.3238 81.6641C36.3463 81.0124 36.1834 81.1211 34.6628 82.6959Z" fill="black"/>
    <path d="M50.0861 46.5483C47.9681 47.6344 46.8277 50.2411 46.0131 55.4545C45.0899 61.3196 45.0356 65.99 45.7959 71.4206C46.4475 76.091 47.0992 77.5572 49.4887 79.8381C51.1722 81.413 51.3351 81.4673 56.4399 81.413C68.333 81.3044 71.7543 76.1453 71.7543 58.1698C71.7543 51.7617 71.6457 50.9471 70.5596 49.3179C69.8536 48.3404 68.6045 47.2543 67.6813 46.9284C65.1289 45.9509 51.6609 45.6794 50.0861 46.5483Z" fill="black"/>
    <path d="M17.9911 48.1232C13.3207 49.5351 13.1578 50.1868 11.1485 72.3438C10.877 75.4393 10.9313 76.5254 11.6372 77.5572C14.5698 82.0104 25.6483 81.6845 28.6895 77.0142C29.8842 75.2221 32.4909 65.4469 33.3055 59.8533C33.7399 56.5406 33.7399 54.9115 33.1969 52.6306C32.1651 48.2861 31.3505 47.7973 25.1052 47.6887C22.227 47.6344 19.0229 47.8516 17.9911 48.1232Z" fill="black"/>
</svg>
